<?xml version="1.0" encoding="UTF-8" standalone="no"?>
<!DOCTYPE svg PUBLIC "-//W3C//DTD SVG 1.1//EN" "http://www.w3.org/Graphics/SVG/1.1/DTD/svg11.dtd">
<svg width="100%" height="100%" viewBox="0 0 2494 626" version="1.1" xmlns="http://www.w3.org/2000/svg" xmlns:xlink="http://www.w3.org/1999/xlink" xml:space="preserve" xmlns:serif="http://www.serif.com/" style="fill-rule:evenodd;clip-rule:evenodd;stroke-linejoin:round;stroke-miterlimit:2;">
    <g transform="matrix(1,0,0,1,-6.873429,-8.187532)">
        <g id="puyomi_logo_typo" transform="matrix(1.333333,0,0,-1.333333,0,1440)">
            <g id="g17" transform="matrix(2.771134,0,0,2.771134,-2173.7579,-701.07819)">
                <g id="g19">
                    <g id="g25" transform="matrix(1,0,0,1,853.0552,551.8506)">
                        <path id="path27" d="M0,0C-3.977,-0.896 -7.312,-2.229 -10.121,-3.838C-11.312,-7.444 -14.086,-10.229 -18.399,-10.957C-21.61,-15.067 -23.236,-19.54 -24.056,-23.216C-24.207,-23.889 -25.171,-23.889 -25.321,-23.216C-26.155,-19.479 -27.823,-14.922 -31.139,-10.756C-34.679,-9.827 -37.574,-7.306 -38.989,-3.991C-41.852,-2.312 -45.275,-0.925 -49.377,-0C-50.062,0.154 -50.062,1.117 -49.377,1.271C-45.275,2.197 -41.852,3.583 -38.989,5.263C-37.574,8.577 -34.679,11.099 -31.139,12.027C-27.823,16.193 -26.155,20.751 -25.321,24.487C-25.171,25.161 -24.207,25.161 -24.056,24.487C-23.235,20.806 -21.606,16.327 -18.387,12.211C-14.271,11.458 -11.512,8.695 -10.246,5.182C-7.412,3.54 -4.036,2.182 0,1.271C0.685,1.117 0.685,0.154 0,0M-20.691,35.463L-54.976,35.463C-61.487,35.463 -66.766,30.184 -66.766,23.673L-66.766,-47.606C-66.766,-54.118 -61.487,-59.396 -54.976,-59.396L-51.724,-59.396C-45.212,-59.396 -39.934,-54.118 -39.934,-47.606L-39.934,-45.574C-39.934,-39.063 -34.656,-33.784 -28.144,-33.784L-20.691,-33.784C4.65,-33.514 17.388,-18.472 17.388,0.906C17.388,19.472 4.785,35.463 -20.691,35.463" style="fill-rule:nonzero;"/>
                    </g>
                    <g id="g29" transform="matrix(1,0,0,1,957.1021,587.1777)">
                        <path id="path31" d="M0,0C-7.372,0 -13.348,-5.977 -13.348,-13.349L-13.348,-52.985C-13.348,-67.35 -20.53,-73.854 -31.372,-73.854C-42.212,-73.854 -49.395,-67.621 -49.395,-52.715L-49.395,-13.349C-49.395,-5.977 -55.371,0 -62.743,0C-70.115,0 -76.091,-5.977 -76.091,-13.349L-76.091,-52.715C-76.091,-81.714 -59.151,-96.756 -31.372,-96.756C-3.591,-96.756 13.484,-81.037 13.348,-52.985L13.348,-13.349C13.348,-5.977 7.372,0 0,0" style="fill-rule:nonzero;"/>
                    </g>
                    <g id="g33" transform="matrix(1,0,0,1,1078.4512,587.3135)">
                        <path id="path35" d="M0,0L-20.717,0C-26.631,0 -32.13,-3.038 -35.279,-8.043L-47.499,-27.465C-48.96,-29.787 -52.354,-29.756 -53.771,-27.409L-65.312,-8.308C-68.427,-3.151 -74.013,0 -80.037,0L-100.551,0C-100.551,-0.708 -80.223,-32.646 -80.223,-32.646C-69.961,-48.578 -64.504,-67.129 -64.504,-86.08L-64.504,-87.229C-64.504,-91.443 -61.088,-94.859 -56.874,-94.859L-45.302,-94.859C-41.088,-94.859 -37.672,-91.443 -37.672,-87.229C-37.672,-67.561 -31.794,-48.34 -20.792,-32.035C-20.792,-32.035 -0,-0.828 -0,-0.093L0,0Z" style="fill-rule:nonzero;"/>
                    </g>
                    <g id="g37" transform="matrix(1,0,0,1,1080.1289,546.9814)">
                        <path id="path39" d="M0,0C21.159,8.91 32.982,23.359 39.58,37.256C40.674,39.557 38.717,42.176 36.201,41.774C14.654,38.335 -0.661,24.709 -4.43,3.478C-4.871,0.988 -2.331,-0.981 0,0" style="fill-rule:nonzero;"/>
                    </g>
                    <g id="g41" transform="matrix(1,0,0,1,1174.9043,546.9712)">
                        <path id="path43" d="M0,0C2.326,-0.979 4.86,0.981 4.432,3.468C0.721,24.959 -14.554,38.428 -36.215,41.805C-38.738,42.198 -40.709,39.592 -39.613,37.284C-33.015,23.377 -21.184,8.913 0,0" style="fill-rule:nonzero;"/>
                    </g>
                    <g id="g45" transform="matrix(1,0,0,1,1174.9111,532.7988)">
                        <path id="path47" d="M0,0C-21.191,-8.914 -33.024,-23.383 -39.623,-37.293C-40.718,-39.6 -38.75,-42.205 -36.228,-41.814C-14.55,-38.458 0.733,-25.043 4.432,-3.466C4.857,-0.979 2.325,0.978 0,0" style="fill-rule:nonzero;"/>
                    </g>
                    <g id="g49" transform="matrix(1,0,0,1,1080.1025,532.7969)">
                        <path id="path51" d="M0,0C-2.327,0.979 -4.86,-0.981 -4.432,-3.469C-0.715,-25.028 14.62,-38.438 36.218,-41.806C38.741,-42.199 40.71,-39.593 39.615,-37.285C33.017,-23.378 21.185,-8.913 0,0" style="fill-rule:nonzero;"/>
                    </g>
                    <g id="g53" transform="matrix(1,0,0,1,1281.2705,587.3135)">
                        <path id="path55" d="M0,0C-5.789,0 -11.253,-2.675 -14.803,-7.248L-25.263,-20.72C-29.747,-26.497 -38.474,-26.497 -42.958,-20.72L-53.418,-7.248C-56.968,-2.675 -62.432,0 -68.221,0L-68.357,0C-78.707,0 -87.097,-8.39 -87.097,-18.74L-87.097,-81.579C-87.097,-88.914 -81.151,-94.859 -73.816,-94.859C-66.481,-94.859 -60.536,-88.914 -60.536,-81.579L-60.536,-51.206C-60.536,-46.909 -55.159,-44.969 -52.416,-48.277L-37.976,-65.688C-37.244,-66.569 -36.158,-67.079 -35.013,-67.079L-33.878,-67.079C-32.736,-67.079 -31.653,-66.576 -30.917,-65.704L-15.916,-47.937C-13.156,-44.669 -7.821,-46.621 -7.821,-50.897L-7.821,-81.579C-7.821,-88.914 -1.876,-94.859 5.459,-94.859C12.794,-94.859 18.739,-88.914 18.739,-81.579L18.739,-18.74C18.739,-8.39 10.35,0 0,0" style="fill-rule:nonzero;"/>
                    </g>
                    <g id="g57" transform="matrix(1,0,0,1,1332.5977,587.3135)">
                        <path id="path59" d="M0,0C-7.373,0 -13.349,-5.977 -13.349,-13.349L-13.349,-81.512C-13.349,-88.884 -7.373,-94.859 0,-94.859C7.371,-94.859 13.348,-88.884 13.348,-81.512L13.348,-13.349C13.348,-5.977 7.371,0 0,0" style="fill-rule:nonzero;"/>
                    </g>
                    <g id="g61" transform="matrix(1,0,0,1,993.8027,605.7139)">
                        <path id="path63" d="M0,0C23.449,-5.288 31.045,-21.353 33.492,-32.322C33.702,-33.26 35.044,-33.26 35.254,-32.322C37.7,-21.353 45.297,-5.288 68.746,0C69.699,0.215 69.699,1.555 68.746,1.77C45.297,7.058 37.7,23.122 35.254,34.092C35.044,35.03 33.702,35.03 33.492,34.092C31.045,23.122 23.449,7.058 0,1.77C-0.953,1.555 -0.953,0.215 0,0" style="fill-rule:nonzero;"/>
                    </g>
                    <g id="g65" transform="matrix(1,0,0,1,1162.4238,539.0469)">
                        <path id="path67" d="M0,0C0.953,0.215 0.953,1.555 0,1.77C-23.449,7.058 -31.046,23.123 -33.492,34.092C-33.702,35.03 -35.044,35.03 -35.254,34.092C-37.701,23.123 -45.297,7.058 -68.746,1.77C-69.699,1.555 -69.699,0.215 -68.746,0C-45.297,-5.287 -37.701,-21.353 -35.254,-32.322C-35.044,-33.26 -33.702,-33.26 -33.492,-32.322C-31.046,-21.353 -23.449,-5.287 0,0" style="fill-rule:nonzero;"/>
                    </g>
                    <g id="g69" transform="matrix(1,0,0,1,1404.5146,539.4565)">
                        <path id="path71" d="M0,0C1.982,8.886 8.137,21.9 27.132,26.183C27.904,26.357 27.904,27.443 27.132,27.617C8.137,31.9 1.982,44.915 0,53.801C-0.169,54.561 -1.257,54.561 -1.427,53.801C-3.409,44.915 -9.563,31.9 -28.559,27.617C-29.33,27.443 -29.33,26.357 -28.559,26.183C-9.563,21.9 -3.409,8.886 -1.427,0C-1.257,-0.76 -0.169,-0.76 0,0" style="fill-rule:nonzero;"/>
                    </g>
                    <g id="g73" transform="matrix(1,0,0,1,1460.4502,513.8164)">
                        <path id="path75" d="M0,0C-19.255,4.342 -25.492,17.533 -27.502,26.541C-27.673,27.311 -28.775,27.311 -28.947,26.541C-30.957,17.533 -37.194,4.342 -56.449,0C-57.231,-0.176 -57.231,-1.276 -56.449,-1.453C-37.194,-5.795 -30.957,-18.986 -28.947,-27.993C-28.775,-28.764 -27.673,-28.764 -27.502,-27.993C-25.492,-18.986 -19.255,-5.795 0,-1.453C0.782,-1.276 0.782,-0.176 0,0" style="fill-rule:nonzero;"/>
                    </g>
                    <g id="g77" transform="matrix(1,0,0,1,1396.5596,492.7383)">
                        <path id="path79" d="M0,0C-14.45,3.259 -19.132,13.158 -20.64,19.918C-20.769,20.496 -21.596,20.496 -21.725,19.918C-23.233,13.158 -27.914,3.259 -42.364,0C-42.952,-0.133 -42.952,-0.958 -42.364,-1.091C-27.914,-4.35 -23.233,-14.249 -21.725,-21.009C-21.596,-21.587 -20.769,-21.587 -20.64,-21.009C-19.132,-14.249 -14.45,-4.35 0,-1.091C0.587,-0.958 0.587,-0.133 0,-0" style="fill-rule:nonzero;"/>
                    </g>
                </g>
            </g>
        </g>
    </g>
</svg>
