<?xml version="1.0" encoding="UTF-8" standalone="no"?>
<!DOCTYPE svg PUBLIC "-//W3C//DTD SVG 1.1//EN" "http://www.w3.org/Graphics/SVG/1.1/DTD/svg11.dtd">
<svg width="100%" height="100%" viewBox="0 0 2902 1195" version="1.1" xmlns="http://www.w3.org/2000/svg" xmlns:xlink="http://www.w3.org/1999/xlink" xml:space="preserve" xmlns:serif="http://www.serif.com/" style="fill-rule:evenodd;clip-rule:evenodd;stroke-linejoin:round;stroke-miterlimit:2;">
    <g transform="matrix(1,0,0,1,-7970.126156,-1867.741753)">
        <g transform="matrix(1,0,0,1,260.893934,357.457622)">
            <g id="verse-2Line-Mono-Dark" serif:id="verse 2Line Mono Dark" transform="matrix(1.028665,0,0,1.502533,7603.430113,1452.666135)">
                <path d="M2923.157,213.288L2923.157,658.591C2923.157,755.143 2808.658,833.532 2667.628,833.532L358.383,833.532C217.353,833.532 102.854,755.143 102.854,658.591L102.854,213.288C102.854,116.735 217.353,38.347 358.383,38.347L2667.628,38.347C2808.658,38.347 2923.157,116.735 2923.157,213.288Z" style="fill:none;"/>
                <clipPath id="_clip1">
                    <path d="M2923.157,213.288L2923.157,658.591C2923.157,755.143 2808.658,833.532 2667.628,833.532L358.383,833.532C217.353,833.532 102.854,755.143 102.854,658.591L102.854,213.288C102.854,116.735 217.353,38.347 358.383,38.347L2667.628,38.347C2808.658,38.347 2923.157,116.735 2923.157,213.288Z"/>
                </clipPath>
                <g clip-path="url(#_clip1)">
                    <g transform="matrix(2.095469,0.828267,-1.219157,1.445672,-2735.529819,-1519.10316)">
                        <path d="M1759.861,142.988C1766.624,125.601 1783.366,114.15 1802.021,114.15C1820.677,114.15 1837.419,125.601 1844.182,142.988L1875.493,223.478C1876.886,227.057 1879.007,230.307 1881.722,233.023C1884.437,235.738 1887.687,237.859 1891.266,239.251L1971.757,270.562C1989.143,277.325 2000.595,294.068 2000.595,312.723C2000.595,331.378 1989.143,348.12 1971.757,354.884L1891.266,386.195C1887.687,387.587 1884.437,389.708 1881.722,392.423C1879.007,395.139 1876.886,398.389 1875.493,401.968L1844.182,482.458C1837.419,499.844 1820.677,511.296 1802.021,511.296C1783.366,511.296 1766.624,499.844 1759.861,482.458L1728.549,401.968C1727.157,398.389 1725.036,395.139 1722.321,392.423C1719.606,389.708 1716.356,387.587 1712.777,386.195L1632.286,354.884C1614.9,348.12 1603.448,331.378 1603.448,312.723C1603.448,294.068 1614.9,277.325 1632.286,270.562L1712.777,239.251C1716.356,237.859 1719.606,235.738 1722.321,233.023C1725.036,230.307 1727.157,227.057 1728.549,223.478L1759.861,142.988ZM1710.13,312.723L1737.582,323.402C1749.947,328.212 1761.182,335.534 1770.564,344.916C1779.887,354.238 1787.176,365.392 1791.955,377.679L1802.021,403.556L1812.088,377.679C1816.867,365.392 1824.156,354.238 1833.478,344.916C1842.86,335.534 1854.095,328.212 1866.461,323.402L1893.913,312.723L1866.461,302.044C1854.095,297.234 1842.86,289.912 1833.478,280.53C1824.156,271.208 1816.867,260.054 1812.088,247.767L1802.021,221.89L1791.955,247.767C1787.176,260.054 1779.887,271.208 1770.564,280.53C1761.182,289.912 1749.947,297.234 1737.582,302.044L1710.13,312.723Z" style="fill:rgb(17,17,17);"/>
                    </g>
                    <g transform="matrix(0.825931,0,0,0.565449,680.100092,239.303589)">
                        <path d="M609.889,248.826C644.533,248.826 675.448,241.609 702.634,227.174C729.82,212.739 751.352,191.568 767.23,163.66C783.109,135.752 791.048,101.349 791.048,60.45C791.048,17.627 782.868,-17.378 766.508,-44.564C750.149,-71.75 727.294,-91.718 697.943,-104.469C668.591,-117.22 634.429,-123.595 595.454,-123.595C567.066,-123.595 541.083,-120.588 517.506,-114.573C493.929,-108.559 474.682,-100.74 459.766,-91.117C450.143,-84.862 442.564,-77.403 437.031,-68.743C431.498,-60.082 428.731,-49.255 428.731,-36.264L428.731,198.304L550.706,198.304L550.706,-16.777C555.999,-19.664 562.495,-22.19 570.193,-24.355C577.892,-26.52 586.312,-27.603 595.454,-27.603C610.852,-27.603 623.723,-24.475 634.068,-18.22C644.413,-11.965 652.232,-2.462 657.525,10.289C662.817,23.04 665.464,39.76 665.464,60.45C665.464,90.282 659.088,113.017 646.338,128.655C633.587,144.293 615.182,152.112 591.124,152.112C577.651,152.112 565.622,149.466 555.037,144.173C544.451,138.88 535.068,133.106 526.888,126.851L526.888,229.339C538.436,234.632 550.826,239.203 564.058,243.052C577.29,246.902 592.567,248.826 609.889,248.826ZM551.428,168.712L428.731,168.712L428.731,315.227C428.731,337.361 434.144,352.517 444.97,360.697C455.796,368.877 472.998,372.967 496.575,372.967C508.123,372.967 518.829,372.245 528.693,370.801C538.557,369.358 546.135,367.914 551.428,366.471L551.428,168.712Z" style="fill:rgb(17,17,17);fill-rule:nonzero;"/>
                    </g>
                    <g transform="matrix(0.825931,0,0,0.565449,680.100092,239.303589)">
                        <path d="M748.011,-104.14C746.108,-113.876 768.167,-114.488 776.148,-115.656C786.012,-117.1 796.718,-117.821 808.266,-117.821C832.324,-117.821 911.098,-113.852 921.684,-105.912C932.27,-97.973 937.563,-82.696 937.563,-60.082L937.563,98.703C937.563,117.949 942.494,131.903 952.358,140.564C962.222,149.225 976.056,153.556 993.859,153.556C1004.926,153.556 1014.068,152.593 1021.285,150.669C1028.503,148.744 1033.795,146.819 1037.164,144.895L1037.164,-111.326C1042.456,-112.769 1050.035,-114.213 1059.899,-115.656C1069.763,-117.1 1080.468,-117.821 1092.016,-117.821C1116.075,-117.821 1133.397,-113.852 1143.982,-105.912C1154.568,-97.973 1159.861,-82.696 1159.861,-60.082L1159.861,162.938C1159.861,174.967 1157.335,185.433 1152.282,194.334C1147.23,203.236 1139.652,210.814 1129.547,217.069C1112.706,227.655 1092.618,235.714 1069.281,241.248C1045.945,246.781 1020.563,249.548 993.137,249.548C958.493,249.548 927.699,244.375 900.753,234.03C873.808,223.685 852.757,207.446 837.601,185.312C822.444,163.179 814.866,134.309 814.866,98.703L814.866,82.632C815.373,75.44 815.629,68.047 815.629,60.45C815.629,12.407 805.923,-26.739 787.57,-57.238C774.555,-78.866 749.915,-94.404 748.011,-104.14Z" style="fill:rgb(17,17,17);"/>
                    </g>
                    <g transform="matrix(0.825931,0,0,0.565449,680.100092,239.303589)">
                        <path d="M1253.688,148.503C1246.47,132.144 1238.772,113.258 1230.592,91.846C1222.412,70.434 1213.871,44.692 1204.97,14.619C1196.068,-15.454 1186.325,-51.902 1175.739,-94.725C1182.475,-101.462 1191.497,-107.356 1202.805,-112.408C1214.112,-117.46 1226.502,-119.987 1239.975,-119.987C1256.815,-119.987 1270.769,-116.498 1281.836,-109.521C1292.903,-102.544 1301.082,-89.433 1306.375,-70.186C1315.999,-36.504 1325.622,-3.184 1335.245,29.776C1344.868,62.736 1354.251,95.575 1363.393,128.294L1366.28,128.294C1373.979,106.161 1381.557,81.862 1389.015,55.398C1396.473,28.934 1403.45,1.868 1409.946,-25.799C1416.442,-53.466 1421.855,-80.29 1426.185,-106.273C1434.365,-110.604 1442.785,-113.972 1451.446,-116.378C1460.107,-118.784 1469.25,-119.987 1478.873,-119.987C1495.714,-119.987 1510.389,-116.378 1522.899,-109.16C1535.41,-101.943 1541.665,-89.433 1541.665,-71.629C1541.665,-56.232 1539.74,-38.429 1535.891,-18.22C1532.042,1.989 1526.749,23.401 1520.012,46.015C1513.276,68.63 1505.577,91.365 1496.917,114.22C1488.256,137.076 1479.113,158.969 1469.49,179.899C1459.867,200.83 1450.244,219.716 1440.62,236.557C1413.675,283.229 1388.654,317.873 1365.559,340.488C1342.463,363.103 1319.126,374.41 1295.549,374.41C1276.302,374.41 1260.183,368.396 1247.192,356.367C1234.201,344.337 1226.502,328.7 1224.096,309.453C1234.201,300.792 1244.425,291.409 1254.77,281.305C1265.115,271.2 1275.1,260.494 1284.723,249.187C1294.346,237.88 1303.007,226.693 1310.706,215.626C1302.526,213.22 1293.745,207.566 1284.362,198.665C1274.979,189.763 1264.755,173.043 1253.688,148.503Z" style="fill:rgb(17,17,17);fill-rule:nonzero;"/>
                    </g>
                    <g transform="matrix(0.825931,0,0,0.565449,680.100092,239.303589)">
                        <path d="M1919.86,62.615C1919.86,101.109 1912.083,134.29 1896.528,162.16C1880.98,190.023 1859.046,211.555 1830.725,226.757C1802.403,241.951 1769.083,249.548 1730.763,249.548C1692.736,249.548 1659.531,242.09 1631.15,227.174C1602.769,212.258 1580.759,190.846 1565.122,162.938C1549.484,135.031 1541.665,101.59 1541.665,62.615C1541.665,24.37 1549.604,-8.646 1565.482,-36.433C1581.361,-64.228 1603.494,-85.704 1631.883,-100.86C1660.272,-116.017 1693.322,-123.595 1731.033,-123.595C1768.745,-123.595 1801.742,-115.908 1830.025,-100.533C1858.309,-85.158 1880.352,-63.506 1896.155,-35.576C1911.959,-7.646 1919.86,25.085 1919.86,62.615ZM1730.593,-27.603C1710.978,-27.603 1695.517,-19.784 1684.21,-4.146C1672.903,11.492 1667.249,33.746 1667.249,62.615C1667.249,92.448 1672.831,115.062 1683.996,130.46C1695.16,145.857 1710.749,153.556 1730.763,153.556C1750.971,153.556 1766.609,145.737 1777.676,130.099C1788.743,114.461 1794.276,91.967 1794.276,62.615C1794.276,34.227 1788.638,12.093 1777.36,-3.785C1766.091,-19.664 1750.502,-27.603 1730.593,-27.603Z" style="fill:rgb(17,17,17);fill-rule:nonzero;"/>
                    </g>
                    <g transform="matrix(0.825931,0,0,0.565449,680.100092,239.303589)">
                        <path d="M882.71,375.847C899.551,375.847 913.745,379.456 925.293,386.673C936.841,393.89 942.615,406.401 942.615,424.204C942.615,433.346 940.209,447.3 935.397,466.065C930.586,484.831 924.331,506.122 916.632,529.94C908.933,553.757 900.393,578.056 891.01,602.836C881.627,627.616 872.365,650.592 863.223,671.763C854.08,692.934 845.901,710.016 838.683,723.007C832.428,727.819 822.684,732.029 809.452,735.638C796.22,739.246 781.425,741.051 765.065,741.051C746.3,741.051 730.06,738.645 716.347,733.833C702.634,729.022 693.131,721.323 687.838,710.737C682.545,700.633 676.17,686.439 668.712,668.154C661.254,649.87 653.314,629.06 644.894,605.723C636.474,582.387 628.174,558.329 619.994,533.549C611.814,508.769 604.236,484.831 597.259,461.735C590.282,438.639 584.869,418.43 581.019,401.108C587.756,394.372 596.778,388.477 608.085,383.425C619.392,378.373 631.782,375.847 645.255,375.847C662.096,375.847 676.05,379.335 687.116,386.312C698.183,393.289 706.122,406.401 710.934,425.647L739.082,536.075C742.931,550.028 746.54,563.381 749.908,576.132C753.276,588.882 756.284,600.31 758.93,610.415C761.577,620.519 763.621,628.939 765.065,635.676L768.674,635.676C777.816,600.07 787.439,560.494 797.544,516.948C807.648,473.403 816.79,430.94 824.97,389.56C842.292,380.418 861.539,375.847 882.71,375.847Z" style="fill:rgb(17,17,17);fill-rule:nonzero;"/>
                    </g>
                    <g transform="matrix(0.825931,0,0,0.565449,680.100092,239.303589)">
                        <path d="M1016.955,613.302L1012.624,532.466L1179.348,505.04C1178.385,495.416 1173.574,485.793 1164.913,476.17C1156.252,466.546 1142.779,461.735 1124.495,461.735C1105.248,461.735 1089.25,467.99 1076.499,480.5C1063.748,493.01 1056.891,510.813 1055.929,533.909L1060.26,594.536C1065.071,616.67 1076.018,632.067 1093.099,640.728C1110.18,649.389 1129.307,653.719 1150.478,653.719C1170.687,653.719 1189.933,651.073 1208.218,645.78C1226.502,640.487 1241.177,634.713 1252.244,628.458C1259.943,633.27 1266.439,640.006 1271.731,648.667C1277.024,657.328 1279.671,666.47 1279.671,676.094C1279.671,691.972 1273.776,705.084 1261.988,715.429C1250.199,725.774 1233.96,733.352 1213.27,738.164C1192.58,742.975 1168.762,745.381 1141.817,745.381C1104.286,745.381 1070.484,738.284 1040.411,724.09C1010.339,709.895 986.521,688.604 968.959,660.215C951.396,631.826 942.615,596.22 942.615,553.397C942.615,521.64 947.787,494.213 958.132,471.117C968.477,448.021 982.311,429.256 999.633,414.821C1016.955,400.386 1036.322,389.68 1057.733,382.703C1079.145,375.726 1101.159,372.238 1123.773,372.238C1157.936,372.238 1187.768,378.854 1213.27,392.086C1238.772,405.318 1258.74,423.362 1273.175,446.217C1287.61,469.072 1294.827,495.416 1294.827,525.248C1294.827,541.608 1290.256,554.118 1281.114,562.779C1271.972,571.44 1259.221,576.974 1242.862,579.379L1016.955,613.302Z" style="fill:rgb(17,17,17);fill-rule:nonzero;"/>
                    </g>
                    <g transform="matrix(0.825931,0,0,0.565449,680.100092,239.303589)">
                        <path d="M1440.62,486.274L1440.62,568.553L1317.923,568.553L1317.923,467.509C1317.923,453.555 1321.652,441.405 1329.11,431.06C1336.568,420.715 1346.312,411.694 1358.341,403.995C1375.182,393.89 1394.91,386.192 1417.524,380.899C1440.139,375.606 1463.476,372.96 1487.534,372.96C1539.981,372.96 1566.204,391.485 1566.204,428.534C1566.204,437.195 1565.001,445.255 1562.595,452.713C1560.19,460.171 1557.303,466.546 1553.935,471.839C1549.123,470.877 1543.349,470.155 1536.613,469.674C1529.876,469.193 1522.418,468.952 1514.238,468.952C1502.209,468.952 1489.458,470.396 1475.986,473.283C1462.513,476.17 1450.725,480.5 1440.62,486.274ZM1317.923,543.292L1440.62,543.292L1440.62,733.112C1435.327,734.555 1427.749,735.999 1417.885,737.442C1408.021,738.886 1397.315,739.607 1385.767,739.607C1362.19,739.607 1344.989,735.517 1334.163,727.338C1323.336,719.158 1317.923,704.001 1317.923,681.868L1317.923,543.292Z" style="fill:rgb(17,17,17);fill-rule:nonzero;"/>
                    </g>
                    <g transform="matrix(0.825931,0,0,0.565449,680.100092,239.303589)">
                        <path d="M1874.39,629.18C1874.39,665.749 1860.557,694.378 1832.89,715.068C1805.223,735.758 1764.925,746.103 1711.997,746.103C1671.098,746.103 1637.537,740.209 1611.313,728.42C1585.09,716.632 1571.978,698.227 1571.978,673.207C1571.978,661.659 1574.384,651.795 1579.196,643.615C1584.007,635.435 1589.781,628.939 1596.518,624.128C1610.471,631.826 1626.47,638.683 1644.514,644.698C1662.557,650.712 1683.368,653.719 1706.945,653.719C1737.739,653.719 1753.137,645.78 1753.137,629.902C1753.137,623.165 1750.25,617.873 1744.476,614.023C1738.702,610.174 1729.078,607.046 1715.606,604.641L1693.953,600.31C1652.573,592.13 1621.538,579.139 1600.848,561.336C1580.158,543.533 1569.813,518.512 1569.813,486.274C1569.813,450.187 1584.488,422.039 1613.84,401.83C1643.191,381.621 1681.443,371.516 1728.597,371.516C1752.174,371.516 1773.707,373.802 1793.194,378.373C1812.681,382.944 1828.198,390.161 1839.746,400.025C1851.294,409.889 1857.068,422.52 1857.068,437.917C1857.068,448.503 1855.023,457.885 1850.933,466.065C1846.844,474.245 1841.671,480.981 1835.416,486.274C1830.123,482.906 1821.823,479.538 1810.516,476.17C1799.208,472.801 1787.059,469.914 1774.067,467.509C1761.076,465.103 1749.528,463.9 1739.424,463.9C1723.545,463.9 1711.275,465.704 1702.614,469.313C1693.953,472.922 1689.623,478.575 1689.623,486.274C1689.623,491.567 1692.029,495.897 1696.84,499.266C1701.652,502.634 1710.794,505.761 1724.267,508.648L1746.641,513.7C1792.833,524.286 1825.672,538.841 1845.159,557.366C1864.647,575.891 1874.39,599.829 1874.39,629.18Z" style="fill:rgb(17,17,17);fill-rule:nonzero;"/>
                    </g>
                    <g transform="matrix(0.825931,0,0,0.565449,680.100092,239.303589)">
                        <path d="M1960.278,613.302L1955.948,532.466L2122.671,505.04C2121.709,495.416 2116.897,485.793 2108.236,476.17C2099.575,466.546 2086.103,461.735 2067.818,461.735C2048.572,461.735 2032.573,467.99 2019.822,480.5C2007.071,493.01 2000.215,510.813 1999.252,533.909L2003.583,594.536C2008.395,616.67 2019.341,632.067 2036.422,640.728C2053.504,649.389 2072.63,653.719 2093.801,653.719C2114.01,653.719 2133.257,651.073 2151.541,645.78C2169.825,640.487 2184.501,634.713 2195.568,628.458C2203.266,633.27 2209.762,640.006 2215.055,648.667C2220.348,657.328 2222.994,666.47 2222.994,676.094C2222.994,691.972 2217.1,705.084 2205.311,715.429C2193.523,725.774 2177.283,733.352 2156.593,738.164C2135.903,742.975 2112.086,745.381 2085.14,745.381C2047.61,745.381 2013.808,738.284 1983.735,724.09C1953.662,709.895 1929.844,688.604 1912.282,660.215C1894.719,631.826 1885.938,596.22 1885.938,553.397C1885.938,521.64 1891.111,494.213 1901.456,471.117C1911.801,448.021 1925.634,429.256 1942.956,414.821C1960.278,400.386 1979.645,389.68 2001.057,382.703C2022.469,375.726 2044.482,372.238 2067.097,372.238C2101.259,372.238 2131.092,378.854 2156.593,392.086C2182.095,405.318 2202.063,423.362 2216.498,446.217C2230.933,469.072 2238.151,495.416 2238.151,525.248C2238.151,541.608 2233.58,554.118 2224.438,562.779C2215.295,571.44 2202.545,576.974 2186.185,579.379L1960.278,613.302Z" style="fill:rgb(17,17,17);fill-rule:nonzero;"/>
                    </g>
                    <g transform="matrix(0.382847,-0,-0,0.264128,2002.75665,359.049001)">
                        <path d="M1759.861,142.988C1766.624,125.601 1783.366,114.15 1802.021,114.15C1820.677,114.15 1837.419,125.601 1844.182,142.988L1875.493,223.478C1876.886,227.057 1879.007,230.307 1881.722,233.023C1884.437,235.738 1887.687,237.859 1891.266,239.251L1971.757,270.562C1989.143,277.325 2000.595,294.068 2000.595,312.723C2000.595,331.378 1989.143,348.12 1971.757,354.884L1891.266,386.195C1887.687,387.587 1884.437,389.708 1881.722,392.423C1879.007,395.139 1876.886,398.389 1875.493,401.968L1844.182,482.458C1837.419,499.844 1820.677,511.296 1802.021,511.296C1783.366,511.296 1766.624,499.844 1759.861,482.458L1728.549,401.968C1727.157,398.389 1725.036,395.139 1722.321,392.423C1719.606,389.708 1716.356,387.587 1712.777,386.195L1632.286,354.884C1614.9,348.12 1603.448,331.378 1603.448,312.723C1603.448,294.068 1614.9,277.325 1632.286,270.562L1712.777,239.251C1716.356,237.859 1719.606,235.738 1722.321,233.023C1725.036,230.307 1727.157,227.057 1728.549,223.478L1759.861,142.988Z" style="fill:rgb(17,17,17);"/>
                    </g>
                    <g transform="matrix(0.309113,0,0,0.213258,2076.123014,527.330883)">
                        <path d="M1759.861,142.988C1766.624,125.601 1783.366,114.15 1802.021,114.15C1820.677,114.15 1837.419,125.601 1844.182,142.988L1875.493,223.478C1876.886,227.057 1879.007,230.307 1881.722,233.023C1884.437,235.738 1887.687,237.859 1891.266,239.251L1971.757,270.562C1989.143,277.325 2000.595,294.068 2000.595,312.723C2000.595,331.378 1989.143,348.12 1971.757,354.884L1891.266,386.195C1887.687,387.587 1884.437,389.708 1881.722,392.423C1879.007,395.139 1876.886,398.389 1875.493,401.968L1844.182,482.458C1837.419,499.844 1820.677,511.296 1802.021,511.296C1783.366,511.296 1766.624,499.844 1759.861,482.458L1728.549,401.968C1727.157,398.389 1725.036,395.139 1722.321,392.423C1719.606,389.708 1716.356,387.587 1712.777,386.195L1632.286,354.884C1614.9,348.12 1603.448,331.378 1603.448,312.723C1603.448,294.068 1614.9,277.325 1632.286,270.562L1712.777,239.251C1716.356,237.859 1719.606,235.738 1722.321,233.023C1725.036,230.307 1727.157,227.057 1728.549,223.478L1759.861,142.988Z" style="fill:rgb(17,17,17);"/>
                    </g>
                    <g transform="matrix(0.654455,0,0,0.540428,1269.67924,149.228168)">
                        <path d="M1759.861,142.988C1766.624,125.601 1783.366,114.15 1802.021,114.15C1820.677,114.15 1837.419,125.601 1844.182,142.988L1875.493,223.478C1876.886,227.057 1879.007,230.307 1881.722,233.023C1884.437,235.738 1887.687,237.859 1891.266,239.251L1971.757,270.562C1989.143,277.325 2000.595,294.068 2000.595,312.723C2000.595,331.378 1989.143,348.12 1971.757,354.884L1891.266,386.195C1887.687,387.587 1884.437,389.708 1881.722,392.423C1879.007,395.139 1876.886,398.389 1875.493,401.968L1844.182,482.458C1837.419,499.844 1820.677,511.296 1802.021,511.296C1783.366,511.296 1766.624,499.844 1759.861,482.458L1728.549,401.968C1727.157,398.389 1725.036,395.139 1722.321,392.423C1719.606,389.708 1716.356,387.587 1712.777,386.195L1632.286,354.884C1614.9,348.12 1603.448,331.378 1603.448,312.723C1603.448,294.068 1614.9,277.325 1632.286,270.562L1712.777,239.251C1716.356,237.859 1719.606,235.738 1722.321,233.023C1725.036,230.307 1727.157,227.057 1728.549,223.478L1759.861,142.988Z" style="fill:rgb(17,17,17);"/>
                    </g>
                </g>
            </g>
        </g>
    </g>
</svg>
