<?xml version="1.0" encoding="UTF-8" standalone="no"?>
<!DOCTYPE svg PUBLIC "-//W3C//DTD SVG 1.1//EN" "http://www.w3.org/Graphics/SVG/1.1/DTD/svg11.dtd">
<svg width="100%" height="100%" viewBox="0 0 2853 825" version="1.1" xmlns="http://www.w3.org/2000/svg" xmlns:xlink="http://www.w3.org/1999/xlink" xml:space="preserve" xmlns:serif="http://www.serif.com/" style="fill-rule:evenodd;clip-rule:evenodd;stroke-linejoin:round;stroke-miterlimit:2;">
    <g transform="matrix(1,0,0,1,-260.893934,-2760.151247)">
        <g transform="matrix(1,0,0,1,260.893934,357.457622)">
            <g id="mi-Mono-Dark" serif:id="mi Mono Dark" transform="matrix(1.011265,0,0,1.037031,-104.012537,2362.926341)">
                <path d="M2923.157,213.288L2923.157,658.591C2923.157,755.143 2842.771,833.532 2743.759,833.532L282.252,833.532C183.239,833.532 102.854,755.143 102.854,658.591L102.854,213.288C102.854,116.735 183.239,38.347 282.252,38.347L2743.759,38.347C2842.771,38.347 2923.157,116.735 2923.157,213.288Z" style="fill:none;"/>
                <clipPath id="_clip1">
                    <path d="M2923.157,213.288L2923.157,658.591C2923.157,755.143 2842.771,833.532 2743.759,833.532L282.252,833.532C183.239,833.532 102.854,755.143 102.854,658.591L102.854,213.288C102.854,116.735 183.239,38.347 282.252,38.347L2743.759,38.347C2842.771,38.347 2923.157,116.735 2923.157,213.288Z"/>
                </clipPath>
                <g clip-path="url(#_clip1)">
                    <g transform="matrix(0.98886,0,0,0.964291,-183.00505,358.00511)">
                        <path d="M609.889,248.826C644.533,248.826 675.448,241.609 702.634,227.174C729.82,212.739 751.352,191.568 767.23,163.66C783.109,135.752 791.048,101.349 791.048,60.45C791.048,17.627 782.868,-17.378 766.508,-44.564C750.149,-71.75 727.294,-91.718 697.943,-104.469C668.591,-117.22 634.429,-123.595 595.454,-123.595C567.066,-123.595 541.083,-120.588 517.506,-114.573C493.929,-108.559 474.682,-100.74 459.766,-91.117C450.143,-84.862 442.564,-77.403 437.031,-68.743C431.498,-60.082 428.731,-49.255 428.731,-36.264L428.731,198.304L550.706,198.304L550.706,-16.777C555.999,-19.664 562.495,-22.19 570.193,-24.355C577.892,-26.52 586.312,-27.603 595.454,-27.603C610.852,-27.603 623.723,-24.475 634.068,-18.22C644.413,-11.965 652.232,-2.462 657.525,10.289C662.817,23.04 665.464,39.76 665.464,60.45C665.464,90.282 659.088,113.017 646.338,128.655C633.587,144.293 615.182,152.112 591.124,152.112C577.651,152.112 565.622,149.466 555.037,144.173C544.451,138.88 535.068,133.106 526.888,126.851L526.888,229.339C538.436,234.632 550.826,239.203 564.058,243.052C577.29,246.902 592.567,248.826 609.889,248.826ZM551.428,168.712L428.731,168.712L428.731,315.227C428.731,337.361 434.144,352.517 444.97,360.697C455.796,368.877 472.998,372.967 496.575,372.967C508.123,372.967 518.829,372.245 528.693,370.801C538.557,369.358 546.135,367.914 551.428,366.471L551.428,168.712Z" style="fill:rgb(17,17,17);fill-rule:nonzero;"/>
                    </g>
                    <g transform="matrix(0.98886,0,0,0.964291,-183.00505,358.00511)">
                        <path d="M748.011,-104.14C746.108,-113.876 768.167,-114.488 776.148,-115.656C786.012,-117.1 796.718,-117.821 808.266,-117.821C832.324,-117.821 911.098,-113.852 921.684,-105.912C932.27,-97.973 937.563,-82.696 937.563,-60.082L937.563,98.703C937.563,117.949 942.494,131.903 952.358,140.564C962.222,149.225 976.056,153.556 993.859,153.556C1004.926,153.556 1014.068,152.593 1021.285,150.669C1028.503,148.744 1033.795,146.819 1037.164,144.895L1037.164,-111.326C1042.456,-112.769 1050.035,-114.213 1059.899,-115.656C1069.763,-117.1 1080.468,-117.821 1092.016,-117.821C1116.075,-117.821 1133.397,-113.852 1143.982,-105.912C1154.568,-97.973 1159.861,-82.696 1159.861,-60.082L1159.861,162.938C1159.861,174.967 1157.335,185.433 1152.282,194.334C1147.23,203.236 1139.652,210.814 1129.547,217.069C1112.706,227.655 1092.618,235.714 1069.281,241.248C1045.945,246.781 1020.563,249.548 993.137,249.548C958.493,249.548 927.699,244.375 900.753,234.03C873.808,223.685 852.757,207.446 837.601,185.312C822.444,163.179 814.866,134.309 814.866,98.703L814.866,82.632C815.373,75.44 815.629,68.047 815.629,60.45C815.629,12.407 805.923,-26.739 787.57,-57.238C774.555,-78.866 749.915,-94.404 748.011,-104.14Z" style="fill:rgb(17,17,17);"/>
                    </g>
                    <g transform="matrix(0.98886,0,0,0.964291,-183.00505,358.00511)">
                        <path d="M1519.44,40.337C1520.505,41.913 1520.373,44.805 1520.012,46.015C1513.276,68.63 1505.577,91.365 1496.917,114.22C1488.256,137.076 1479.113,158.969 1469.49,179.899C1459.867,200.83 1450.244,219.716 1440.62,236.557C1413.675,283.229 1388.654,317.873 1365.559,340.488C1342.463,363.103 1319.126,374.41 1295.549,374.41C1276.302,374.41 1260.183,368.396 1247.192,356.367C1234.201,344.337 1226.502,328.7 1224.096,309.453C1234.201,300.792 1244.425,291.409 1254.77,281.305C1265.115,271.2 1275.1,260.494 1284.723,249.187C1294.346,237.88 1303.007,226.693 1310.706,215.626C1302.526,213.22 1293.745,207.566 1284.362,198.665C1274.979,189.763 1264.755,173.043 1253.688,148.503C1246.47,132.144 1238.772,113.258 1230.592,91.846C1222.412,70.434 1213.871,44.692 1204.97,14.619C1196.068,-15.454 1186.325,-51.902 1175.739,-94.725C1182.475,-101.462 1191.497,-107.356 1202.805,-112.408C1214.112,-117.46 1226.502,-119.987 1239.975,-119.987C1256.815,-119.987 1270.769,-116.498 1281.836,-109.521C1292.903,-102.544 1301.082,-89.433 1306.375,-70.186C1315.999,-36.504 1325.622,-3.184 1335.245,29.776C1344.868,62.736 1354.251,95.575 1363.393,128.294L1366.28,128.294C1373.979,106.161 1387.02,78.967 1389.015,55.398C1390.965,32.361 1388.925,19.136 1378.25,-13.12C1370.896,-44.793 1382.29,-76.385 1394.49,-93.595C1406.315,-110.277 1436.943,-119.322 1478.873,-119.987C1495.734,-120.254 1513.017,-118.763 1515.023,-113.106C1517.028,-107.448 1497.143,-96.85 1490.903,-86.042C1472.583,-54.311 1475.53,-14.679 1498.234,13.768C1498.234,13.768 1515.81,34.962 1519.44,40.337Z" style="fill:rgb(17,17,17);"/>
                    </g>
                    <g transform="matrix(1.234279,0.694906,-0.718111,1.212902,-443.432375,-1207.359309)">
                        <path d="M1759.861,142.988C1766.624,125.601 1783.366,114.15 1802.021,114.15C1820.677,114.15 1837.419,125.601 1844.182,142.988L1875.493,223.478C1876.886,227.057 1879.007,230.307 1881.722,233.023C1884.437,235.738 1887.687,237.859 1891.266,239.251L1971.757,270.562C1989.143,277.325 2000.595,294.068 2000.595,312.723C2000.595,331.378 1989.143,348.12 1971.757,354.884L1891.266,386.195C1887.687,387.587 1884.437,389.708 1881.722,392.423C1879.007,395.139 1876.886,398.389 1875.493,401.968L1844.182,482.458C1837.419,499.844 1820.677,511.296 1802.021,511.296C1783.366,511.296 1766.624,499.844 1759.861,482.458L1728.549,401.968C1727.157,398.389 1725.036,395.139 1722.321,392.423C1719.606,389.708 1716.356,387.587 1712.777,386.195L1632.286,354.884C1614.9,348.12 1603.448,331.378 1603.448,312.723C1603.448,294.068 1614.9,277.325 1632.286,270.562L1712.777,239.251C1716.356,237.859 1719.606,235.738 1722.321,233.023C1725.036,230.307 1727.157,227.057 1728.549,223.478L1759.861,142.988ZM1714.012,312.723L1738.099,322.093C1750.648,326.974 1762.049,334.405 1771.57,343.926C1781.03,353.385 1788.427,364.704 1793.277,377.173L1802.021,399.652L1810.766,377.173C1815.616,364.704 1823.013,353.385 1832.473,343.926C1841.994,334.405 1853.395,326.974 1865.944,322.093L1890.03,312.723L1865.944,303.353C1853.395,298.472 1841.994,291.041 1832.473,281.52C1823.013,272.06 1815.616,260.742 1810.766,248.273L1802.021,225.794L1793.277,248.273C1788.427,260.742 1781.03,272.06 1771.57,281.52C1762.049,291.041 1750.648,298.472 1738.099,303.353L1714.012,312.723Z" style="fill:rgb(17,17,17);"/>
                    </g>
                    <g transform="matrix(0.98886,0,0,0.964291,-183.00505,358.00511)">
                        <path d="M1993.478,91.062L1993.478,-31.212C1993.478,-44.203 1996.245,-54.789 2001.779,-62.969C2007.312,-71.148 2014.89,-78.606 2024.514,-85.343C2040.873,-96.891 2061.202,-106.153 2085.501,-113.13C2109.8,-120.107 2135.182,-123.595 2161.646,-123.595C2184.26,-123.595 2205.913,-120.107 2226.603,-113.13C2241.882,-107.978 2256.112,-100.529 2269.292,-90.784C2281.117,-97.939 2293.712,-104.425 2307.078,-110.243C2327.527,-119.145 2352.909,-123.595 2383.222,-123.595C2407.761,-123.595 2431.218,-119.265 2453.592,-110.604C2475.966,-101.943 2494.13,-87.869 2508.084,-68.382C2522.038,-48.894 2529.015,-22.791 2529.015,9.928L2529.015,237.278C2523.722,238.722 2516.144,240.165 2506.28,241.609C2496.416,243.052 2485.71,243.774 2474.162,243.774C2450.585,243.774 2433.383,239.684 2422.557,231.504C2411.731,223.324 2406.318,208.168 2406.318,186.034L2406.318,13.537C2406.318,-0.898 2402.469,-11.364 2394.77,-17.859C2387.071,-24.355 2376.967,-27.603 2364.456,-27.603C2355.314,-27.603 2346.653,-25.799 2338.474,-22.19C2332.083,-19.37 2326.573,-16.331 2321.945,-13.071C2322.378,-9.735 2322.595,-6.399 2322.595,-3.064L2322.595,237.278C2317.302,238.722 2309.724,240.165 2299.86,241.609C2289.996,243.052 2279.29,243.774 2267.742,243.774C2244.165,243.774 2226.964,239.684 2216.137,231.504C2205.311,223.324 2199.898,208.168 2199.898,186.034L2199.898,13.537C2199.898,-0.898 2195.688,-11.364 2187.268,-17.859C2178.847,-24.355 2168.622,-27.603 2156.593,-27.603C2147.451,-27.603 2139.512,-26.28 2132.776,-23.633C2126.039,-20.987 2120.506,-18.461 2116.175,-16.055L2116.175,96.912C2165.521,185.194 2134.599,234.671 2116.175,237.278C2116.175,237.278 2103.304,240.165 2093.44,241.609C2083.577,243.052 2072.871,243.774 2061.323,243.774C2042.828,243.774 2023.381,239.638 2017.608,236.224C2013.074,233.543 2024.012,227.918 2026.684,223.29C2045.004,191.559 2042.057,151.927 2019.352,123.481L1993.478,91.062Z" style="fill:rgb(17,17,17);"/>
                    </g>
                    <g transform="matrix(0.98886,0,0,0.964291,-183.00505,358.00511)">
                        <path d="M2571.598,47.459L2694.295,47.459L2694.295,237.278C2689.002,238.722 2681.424,240.165 2671.56,241.609C2661.696,243.052 2650.99,243.774 2639.442,243.774C2615.865,243.774 2598.663,239.684 2587.837,231.504C2577.011,223.324 2571.598,208.168 2571.598,186.034L2571.598,47.459ZM2694.295,111.694L2571.598,111.694L2571.598,-19.871C2576.891,-21.314 2584.469,-22.758 2594.333,-24.201C2604.197,-25.645 2614.903,-26.367 2626.451,-26.367C2650.509,-26.367 2667.831,-22.397 2678.416,-14.458C2689.002,-6.518 2694.295,8.758 2694.295,31.373L2694.295,111.694Z" style="fill:rgb(17,17,17);fill-rule:nonzero;"/>
                    </g>
                    <g transform="matrix(0.45837,-0,-0,0.450431,1594.617761,72.891523)">
                        <path d="M1759.861,142.988C1766.624,125.601 1783.366,114.15 1802.021,114.15C1820.677,114.15 1837.419,125.601 1844.182,142.988L1875.493,223.478C1876.886,227.057 1879.007,230.307 1881.722,233.023C1884.437,235.738 1887.687,237.859 1891.266,239.251L1971.757,270.562C1989.143,277.325 2000.595,294.068 2000.595,312.723C2000.595,331.378 1989.143,348.12 1971.757,354.884L1891.266,386.195C1887.687,387.587 1884.437,389.708 1881.722,392.423C1879.007,395.139 1876.886,398.389 1875.493,401.968L1844.182,482.458C1837.419,499.844 1820.677,511.296 1802.021,511.296C1783.366,511.296 1766.624,499.844 1759.861,482.458L1728.549,401.968C1727.157,398.389 1725.036,395.139 1722.321,392.423C1719.606,389.708 1716.356,387.587 1712.777,386.195L1632.286,354.884C1614.9,348.12 1603.448,331.378 1603.448,312.723C1603.448,294.068 1614.9,277.325 1632.286,270.562L1712.777,239.251C1716.356,237.859 1719.606,235.738 1722.321,233.023C1725.036,230.307 1727.157,227.057 1728.549,223.478L1759.861,142.988Z" style="fill:rgb(17,17,17);"/>
                    </g>
                    <g transform="matrix(0.45837,0,0,0.450431,1776.657746,429.257689)">
                        <path d="M1759.861,142.988C1766.624,125.601 1783.366,114.15 1802.021,114.15C1820.677,114.15 1837.419,125.601 1844.182,142.988L1875.493,223.478C1876.886,227.057 1879.007,230.307 1881.722,233.023C1884.437,235.738 1887.687,237.859 1891.266,239.251L1971.757,270.562C1989.143,277.325 2000.595,294.068 2000.595,312.723C2000.595,331.378 1989.143,348.12 1971.757,354.884L1891.266,386.195C1887.687,387.587 1884.437,389.708 1881.722,392.423C1879.007,395.139 1876.886,398.389 1875.493,401.968L1844.182,482.458C1837.419,499.844 1820.677,511.296 1802.021,511.296C1783.366,511.296 1766.624,499.844 1759.861,482.458L1728.549,401.968C1727.157,398.389 1725.036,395.139 1722.321,392.423C1719.606,389.708 1716.356,387.587 1712.777,386.195L1632.286,354.884C1614.9,348.12 1603.448,331.378 1603.448,312.723C1603.448,294.068 1614.9,277.325 1632.286,270.562L1712.777,239.251C1716.356,237.859 1719.606,235.738 1722.321,233.023C1725.036,230.307 1727.157,227.057 1728.549,223.478L1759.861,142.988Z" style="fill:rgb(17,17,17);"/>
                    </g>
                    <g transform="matrix(0.783557,0,0,0.92162,1266.115337,32.02425)">
                        <path d="M1759.861,142.988C1766.624,125.601 1783.366,114.15 1802.021,114.15C1820.677,114.15 1837.419,125.601 1844.182,142.988L1875.493,223.478C1876.886,227.057 1879.007,230.307 1881.722,233.023C1884.437,235.738 1887.687,237.859 1891.266,239.251L1971.757,270.562C1989.143,277.325 2000.595,294.068 2000.595,312.723C2000.595,331.378 1989.143,348.12 1971.757,354.884L1891.266,386.195C1887.687,387.587 1884.437,389.708 1881.722,392.423C1879.007,395.139 1876.886,398.389 1875.493,401.968L1844.182,482.458C1837.419,499.844 1820.677,511.296 1802.021,511.296C1783.366,511.296 1766.624,499.844 1759.861,482.458L1728.549,401.968C1727.157,398.389 1725.036,395.139 1722.321,392.423C1719.606,389.708 1716.356,387.587 1712.777,386.195L1632.286,354.884C1614.9,348.12 1603.448,331.378 1603.448,312.723C1603.448,294.068 1614.9,277.325 1632.286,270.562L1712.777,239.251C1716.356,237.859 1719.606,235.738 1722.321,233.023C1725.036,230.307 1727.157,227.057 1728.549,223.478L1759.861,142.988Z" style="fill:rgb(17,17,17);"/>
                    </g>
                </g>
            </g>
        </g>
    </g>
</svg>
