<?xml version="1.0" encoding="UTF-8" standalone="no"?>
<!DOCTYPE svg PUBLIC "-//W3C//DTD SVG 1.1//EN" "http://www.w3.org/Graphics/SVG/1.1/DTD/svg11.dtd">
<svg width="100%" height="100%" viewBox="0 0 514 517" version="1.1" xmlns="http://www.w3.org/2000/svg" xmlns:xlink="http://www.w3.org/1999/xlink" xml:space="preserve" xmlns:serif="http://www.serif.com/" style="fill-rule:evenodd;clip-rule:evenodd;stroke-linejoin:round;stroke-miterlimit:2;">
    <g transform="matrix(1,0,0,1,-1212.995584,-141.672579)">
        <g transform="matrix(1.248183,0.720639,-0.726201,1.257817,-552.440178,-1291.836316)">
            <path d="M1759.861,142.988C1766.624,125.601 1783.366,114.15 1802.021,114.15C1820.677,114.15 1837.419,125.601 1844.182,142.988L1875.493,223.478C1876.886,227.057 1879.007,230.307 1881.722,233.023C1884.437,235.738 1887.687,237.859 1891.266,239.251L1971.757,270.562C1989.143,277.325 2000.595,294.068 2000.595,312.723C2000.595,331.378 1989.143,348.12 1971.757,354.884L1891.266,386.195C1887.687,387.587 1884.437,389.708 1881.722,392.423C1879.007,395.139 1876.886,398.389 1875.493,401.968L1844.182,482.458C1837.419,499.844 1820.677,511.296 1802.021,511.296C1783.366,511.296 1766.624,499.844 1759.861,482.458L1728.549,401.968C1727.157,398.389 1725.036,395.139 1722.321,392.423C1719.606,389.708 1716.356,387.587 1712.777,386.195L1632.286,354.884C1614.9,348.12 1603.448,331.378 1603.448,312.723C1603.448,294.068 1614.9,277.325 1632.286,270.562L1712.777,239.251C1716.356,237.859 1719.606,235.738 1722.321,233.023C1725.036,230.307 1727.157,227.057 1728.549,223.478L1759.861,142.988ZM1714.012,312.723L1738.099,322.093C1750.648,326.974 1762.049,334.405 1771.57,343.926C1781.03,353.385 1788.427,364.704 1793.277,377.173L1802.021,399.652L1810.766,377.173C1815.616,364.704 1823.013,353.385 1832.473,343.926C1841.994,334.405 1853.395,326.974 1865.944,322.093L1890.03,312.723L1865.944,303.353C1853.395,298.472 1841.994,291.041 1832.473,281.52C1823.013,272.06 1815.616,260.742 1810.766,248.273L1802.021,225.794L1793.277,248.273C1788.427,260.742 1781.03,272.06 1771.57,281.52C1762.049,291.041 1750.648,298.472 1738.099,303.353L1714.012,312.723Z" style="fill:url(#_Linear1);"/>
        </g>
    </g>
    <defs>
        <linearGradient id="_Linear1" x1="0" y1="0" x2="1" y2="0" gradientUnits="userSpaceOnUse" gradientTransform="matrix(397.146254,0,0,397.146254,1603.448276,312.722949)"><stop offset="0" style="stop-color:rgb(255,0,0);stop-opacity:1"/><stop offset="1" style="stop-color:rgb(128,0,255);stop-opacity:1"/></linearGradient>
    </defs>
</svg>
