<?xml version="1.0" encoding="UTF-8" standalone="no"?>
<!DOCTYPE svg PUBLIC "-//W3C//DTD SVG 1.1//EN" "http://www.w3.org/Graphics/SVG/1.1/DTD/svg11.dtd">
<svg width="100%" height="100%" viewBox="0 0 3831 825" version="1.1" xmlns="http://www.w3.org/2000/svg" xmlns:xlink="http://www.w3.org/1999/xlink" xml:space="preserve" xmlns:serif="http://www.serif.com/" style="fill-rule:evenodd;clip-rule:evenodd;stroke-linejoin:round;stroke-miterlimit:2;">
    <g transform="matrix(1,0,0,1,-3645.121257,-5304.801054)">
        <g transform="matrix(1,0,0,1,260.893934,357.457622)">
            <g id="verse-Color-Dark" serif:id="verse Color Dark" transform="matrix(1.358172,0,0,1.037031,3244.534069,4907.576148)">
                <path d="M2923.157,213.288L2923.157,658.591C2923.157,755.143 2863.304,833.532 2789.581,833.532L236.43,833.532C162.707,833.532 102.854,755.143 102.854,658.591L102.854,213.288C102.854,116.735 162.707,38.347 236.43,38.347L2789.581,38.347C2863.304,38.347 2923.157,116.735 2923.157,213.288Z" style="fill:none;"/>
                <clipPath id="_clip1">
                    <path d="M2923.157,213.288L2923.157,658.591C2923.157,755.143 2863.304,833.532 2789.581,833.532L236.43,833.532C162.707,833.532 102.854,755.143 102.854,658.591L102.854,213.288C102.854,116.735 162.707,38.347 236.43,38.347L2789.581,38.347C2863.304,38.347 2923.157,116.735 2923.157,213.288Z"/>
                </clipPath>
                <g clip-path="url(#_clip1)">
                    <g transform="matrix(0.736284,0,0,0.964291,-109.990425,358.00511)">
                        <path d="M609.889,248.826C644.533,248.826 675.448,241.609 702.634,227.174C729.82,212.739 751.352,191.568 767.23,163.66C783.109,135.752 791.048,101.349 791.048,60.45C791.048,17.627 782.868,-17.378 766.508,-44.564C750.149,-71.75 727.294,-91.718 697.943,-104.469C668.591,-117.22 634.429,-123.595 595.454,-123.595C567.066,-123.595 541.083,-120.588 517.506,-114.573C493.929,-108.559 474.682,-100.74 459.766,-91.117C450.143,-84.862 442.564,-77.403 437.031,-68.743C431.498,-60.082 428.731,-49.255 428.731,-36.264L428.731,198.304L550.706,198.304L550.706,-16.777C555.999,-19.664 562.495,-22.19 570.193,-24.355C577.892,-26.52 586.312,-27.603 595.454,-27.603C610.852,-27.603 623.723,-24.475 634.068,-18.22C644.413,-11.965 652.232,-2.462 657.525,10.289C662.817,23.04 665.464,39.76 665.464,60.45C665.464,90.282 659.088,113.017 646.338,128.655C633.587,144.293 615.182,152.112 591.124,152.112C577.651,152.112 565.622,149.466 555.037,144.173C544.451,138.88 535.068,133.106 526.888,126.851L526.888,229.339C538.436,234.632 550.826,239.203 564.058,243.052C577.29,246.902 592.567,248.826 609.889,248.826ZM551.428,168.712L428.731,168.712L428.731,315.227C428.731,337.361 434.144,352.517 444.97,360.697C455.796,368.877 472.998,372.967 496.575,372.967C508.123,372.967 518.829,372.245 528.693,370.801C538.557,369.358 546.135,367.914 551.428,366.471L551.428,168.712Z" style="fill:rgb(17,17,17);fill-rule:nonzero;"/>
                    </g>
                    <g transform="matrix(0.736284,0,0,0.964291,-109.990425,358.00511)">
                        <path d="M748.011,-104.14C746.108,-113.876 768.167,-114.488 776.148,-115.656C786.012,-117.1 796.718,-117.821 808.266,-117.821C832.324,-117.821 911.098,-113.852 921.684,-105.912C932.27,-97.973 937.563,-82.696 937.563,-60.082L937.563,98.703C937.563,117.949 942.494,131.903 952.358,140.564C962.222,149.225 976.056,153.556 993.859,153.556C1004.926,153.556 1014.068,152.593 1021.285,150.669C1028.503,148.744 1033.795,146.819 1037.164,144.895L1037.164,-111.326C1042.456,-112.769 1050.035,-114.213 1059.899,-115.656C1069.763,-117.1 1080.468,-117.821 1092.016,-117.821C1116.075,-117.821 1133.397,-113.852 1143.982,-105.912C1154.568,-97.973 1159.861,-82.696 1159.861,-60.082L1159.861,162.938C1159.861,174.967 1157.335,185.433 1152.282,194.334C1147.23,203.236 1139.652,210.814 1129.547,217.069C1112.706,227.655 1092.618,235.714 1069.281,241.248C1045.945,246.781 1020.563,249.548 993.137,249.548C958.493,249.548 927.699,244.375 900.753,234.03C873.808,223.685 852.757,207.446 837.601,185.312C822.444,163.179 814.866,134.309 814.866,98.703L814.866,82.632C815.373,75.44 815.629,68.047 815.629,60.45C815.629,12.407 805.923,-26.739 787.57,-57.238C774.555,-78.866 749.915,-94.404 748.011,-104.14Z" style="fill:rgb(17,17,17);"/>
                    </g>
                    <g transform="matrix(0.736284,0,0,0.964291,-109.990425,358.00511)">
                        <path d="M1519.44,40.337C1520.505,41.913 1520.373,44.805 1520.012,46.015C1513.276,68.63 1505.577,91.365 1496.917,114.22C1488.256,137.076 1479.113,158.969 1469.49,179.899C1459.867,200.83 1450.244,219.716 1440.62,236.557C1413.675,283.229 1388.654,317.873 1365.559,340.488C1342.463,363.103 1319.126,374.41 1295.549,374.41C1276.302,374.41 1260.183,368.396 1247.192,356.367C1234.201,344.337 1226.502,328.7 1224.096,309.453C1234.201,300.792 1244.425,291.409 1254.77,281.305C1265.115,271.2 1275.1,260.494 1284.723,249.187C1294.346,237.88 1303.007,226.693 1310.706,215.626C1302.526,213.22 1293.745,207.566 1284.362,198.665C1274.979,189.763 1264.755,173.043 1253.688,148.503C1246.47,132.144 1238.772,113.258 1230.592,91.846C1222.412,70.434 1213.871,44.692 1204.97,14.619C1196.068,-15.454 1186.325,-51.902 1175.739,-94.725C1182.475,-101.462 1191.497,-107.356 1202.805,-112.408C1214.112,-117.46 1226.502,-119.987 1239.975,-119.987C1256.815,-119.987 1270.769,-116.498 1281.836,-109.521C1292.903,-102.544 1301.082,-89.433 1306.375,-70.186C1315.999,-36.504 1325.622,-3.184 1335.245,29.776C1344.868,62.736 1354.251,95.575 1363.393,128.294L1366.28,128.294C1373.979,106.161 1387.02,78.967 1389.015,55.398C1390.965,32.361 1388.925,19.136 1378.25,-13.12C1370.896,-44.793 1382.29,-76.385 1394.49,-93.595C1406.315,-110.277 1436.943,-119.322 1478.873,-119.987C1495.734,-120.254 1513.017,-118.763 1515.023,-113.106C1517.028,-107.448 1497.143,-96.85 1490.903,-86.042C1472.583,-54.311 1475.53,-14.679 1498.234,13.768C1498.234,13.768 1515.81,34.962 1519.44,40.337Z" style="fill:rgb(17,17,17);"/>
                    </g>
                    <g transform="matrix(0.919017,0.694906,-0.53469,1.212902,-303.898906,-1207.359309)">
                        <path d="M1759.861,142.988C1766.624,125.601 1783.366,114.15 1802.021,114.15C1820.677,114.15 1837.419,125.601 1844.182,142.988L1875.493,223.478C1876.886,227.057 1879.007,230.307 1881.722,233.023C1884.437,235.738 1887.687,237.859 1891.266,239.251L1971.757,270.562C1989.143,277.325 2000.595,294.068 2000.595,312.723C2000.595,331.378 1989.143,348.12 1971.757,354.884L1891.266,386.195C1887.687,387.587 1884.437,389.708 1881.722,392.423C1879.007,395.139 1876.886,398.389 1875.493,401.968L1844.182,482.458C1837.419,499.844 1820.677,511.296 1802.021,511.296C1783.366,511.296 1766.624,499.844 1759.861,482.458L1728.549,401.968C1727.157,398.389 1725.036,395.139 1722.321,392.423C1719.606,389.708 1716.356,387.587 1712.777,386.195L1632.286,354.884C1614.9,348.12 1603.448,331.378 1603.448,312.723C1603.448,294.068 1614.9,277.325 1632.286,270.562L1712.777,239.251C1716.356,237.859 1719.606,235.738 1722.321,233.023C1725.036,230.307 1727.157,227.057 1728.549,223.478L1759.861,142.988ZM1714.012,312.723L1738.099,322.093C1750.648,326.974 1762.049,334.405 1771.57,343.926C1781.03,353.385 1788.427,364.704 1793.277,377.173L1802.021,399.652L1810.766,377.173C1815.616,364.704 1823.013,353.385 1832.473,343.926C1841.994,334.405 1853.395,326.974 1865.944,322.093L1890.03,312.723L1865.944,303.353C1853.395,298.472 1841.994,291.041 1832.473,281.52C1823.013,272.06 1815.616,260.742 1810.766,248.273L1802.021,225.794L1793.277,248.273C1788.427,260.742 1781.03,272.06 1771.57,281.52C1762.049,291.041 1750.648,298.472 1738.099,303.353L1714.012,312.723Z" style="fill:url(#_Linear2);"/>
                    </g>
                    <g transform="matrix(0.736284,0,0,0.964291,-135.833697,358.00511)">
                        <path d="M1992.528,-110.085C1999.842,-120.118 2021.145,-119.987 2034.618,-119.987C2051.459,-119.987 2065.413,-116.498 2076.479,-109.521C2087.546,-102.544 2095.485,-89.433 2100.297,-70.186L2128.445,40.241C2132.295,54.195 2135.903,67.547 2139.271,80.298C2166.418,108.947 2158.345,128.941 2158.345,128.941C2167.487,93.335 2176.802,64.66 2186.907,21.115C2197.011,-22.43 2206.153,-64.893 2214.333,-106.273C2231.655,-115.415 2250.902,-119.987 2272.073,-119.987C2288.914,-119.987 2303.108,-116.378 2314.656,-109.16C2326.204,-101.943 2331.978,-89.433 2331.978,-71.629C2331.978,-62.487 2329.572,-48.534 2324.76,-29.768C2319.949,-11.003 2313.694,10.289 2305.995,34.106C2298.296,57.924 2289.756,82.223 2280.373,107.003C2270.99,131.783 2261.728,154.759 2252.586,175.93C2243.444,197.101 2235.264,214.182 2228.046,227.174C2221.791,231.985 2212.048,236.196 2198.816,239.804C2185.584,243.413 2170.788,245.217 2154.428,245.217C2135.663,245.217 2119.423,242.812 2105.71,238C2091.997,233.188 2082.196,226.068 2077.201,214.904C2068.661,195.815 2072.25,145.744 2054.47,123.466C2036.689,101.189 2033.615,101.812 2026.708,88.684C2019.19,74.392 2015.082,55.058 2009.357,37.715C2001.177,12.935 1989.427,-9.465 1986.622,-34.099C1983.817,-58.732 1988.673,-93.436 1992.528,-110.085Z" style="fill:rgb(17,17,17);"/>
                    </g>
                    <g transform="matrix(0.736284,0,0,0.964291,-135.833697,358.00511)">
                        <path d="M2406.318,117.468L2401.987,36.633L2568.711,9.206C2567.749,-0.417 2562.937,-10.04 2554.276,-19.664C2545.615,-29.287 2532.142,-34.099 2513.858,-34.099C2494.612,-34.099 2478.613,-27.844 2465.862,-15.333C2453.111,-2.823 2446.254,14.98 2445.292,38.076L2449.623,98.703C2454.434,120.836 2465.381,136.234 2482.462,144.895C2499.543,153.556 2518.67,157.886 2539.841,157.886C2560.05,157.886 2579.297,155.24 2597.581,149.947C2615.865,144.654 2630.541,138.88 2641.607,132.625C2649.306,137.437 2655.802,144.173 2661.095,152.834C2666.387,161.495 2669.034,170.637 2669.034,180.26C2669.034,196.139 2663.139,209.25 2651.351,219.595C2639.562,229.94 2623.323,237.519 2602.633,242.33C2581.943,247.142 2558.125,249.548 2531.18,249.548C2493.649,249.548 2459.847,242.451 2429.775,228.256C2399.702,214.062 2375.884,192.771 2358.322,164.382C2340.759,135.993 2331.978,100.387 2331.978,57.563C2331.978,25.806 2337.15,-1.62 2347.495,-24.716C2357.84,-47.812 2371.674,-66.577 2388.996,-81.012C2406.318,-95.447 2425.685,-106.153 2447.097,-113.13C2468.508,-120.107 2490.522,-123.595 2513.136,-123.595C2547.299,-123.595 2577.131,-116.979 2602.633,-103.747C2628.135,-90.515 2648.103,-72.472 2662.538,-49.616C2676.973,-26.761 2684.19,-0.417 2684.19,29.415C2684.19,45.775 2679.619,58.285 2670.477,66.946C2661.335,75.607 2648.584,81.14 2632.225,83.546L2406.318,117.468Z" style="fill:rgb(17,17,17);fill-rule:nonzero;"/>
                    </g>
                    <g transform="matrix(0.736284,0,0,0.964291,-135.833697,358.00511)">
                        <path d="M2829.983,-9.559L2829.983,72.72L2707.286,72.72L2707.286,-28.325C2707.286,-42.278 2711.015,-54.428 2718.473,-64.773C2725.931,-75.118 2735.675,-84.14 2747.704,-91.838C2764.545,-101.943 2784.273,-109.642 2806.887,-114.934C2829.502,-120.227 2852.839,-122.874 2876.897,-122.874C2929.344,-122.874 2955.567,-104.349 2955.567,-67.299C2955.567,-58.638 2954.364,-50.579 2951.959,-43.12C2949.553,-35.662 2946.666,-29.287 2943.298,-23.994C2938.486,-24.957 2932.712,-25.678 2925.976,-26.159C2919.239,-26.641 2911.781,-26.881 2903.602,-26.881C2891.572,-26.881 2878.822,-25.438 2865.349,-22.551C2851.876,-19.664 2840.088,-15.333 2829.983,-9.559ZM2707.286,47.459L2829.983,47.459L2829.983,237.278C2824.691,238.722 2817.112,240.165 2807.248,241.609C2797.384,243.052 2786.679,243.774 2775.131,243.774C2751.554,243.774 2734.352,239.684 2723.526,231.504C2712.699,223.324 2707.286,208.168 2707.286,186.034L2707.286,47.459Z" style="fill:rgb(17,17,17);fill-rule:nonzero;"/>
                    </g>
                    <g transform="matrix(0.736284,0,0,0.964291,-135.833697,358.00511)">
                        <path d="M3263.753,133.347C3263.753,169.915 3249.92,198.544 3222.253,219.235C3194.586,239.925 3154.288,250.27 3101.36,250.27C3060.461,250.27 3026.9,244.375 3000.677,232.587C2974.453,220.798 2961.341,202.394 2961.341,177.373C2961.341,165.825 2963.747,155.961 2968.559,147.782C2973.37,139.602 2979.144,133.106 2985.881,128.294C2999.834,135.993 3015.833,142.85 3033.877,148.864C3051.921,154.879 3072.731,157.886 3096.308,157.886C3127.103,157.886 3142.5,149.947 3142.5,134.068C3142.5,127.332 3139.613,122.039 3133.839,118.19C3128.065,114.341 3118.442,111.213 3104.969,108.807L3083.317,104.477C3041.936,96.297 3010.901,83.306 2990.211,65.502C2969.521,47.699 2959.176,22.679 2959.176,-9.559C2959.176,-45.647 2973.852,-73.795 3003.203,-94.004C3032.554,-114.213 3070.806,-124.317 3117.96,-124.317C3141.538,-124.317 3163.07,-122.031 3182.557,-117.46C3202.044,-112.889 3217.562,-105.672 3229.109,-95.808C3240.657,-85.944 3246.431,-73.314 3246.431,-57.916C3246.431,-47.331 3244.386,-37.948 3240.297,-29.768C3236.207,-21.588 3231.034,-14.852 3224.779,-9.559C3219.486,-12.927 3211.186,-16.296 3199.879,-19.664C3188.571,-23.032 3176.422,-25.919 3163.43,-28.325C3150.439,-30.73 3138.891,-31.933 3128.787,-31.933C3112.908,-31.933 3100.639,-30.129 3091.978,-26.52C3083.317,-22.912 3078.986,-17.258 3078.986,-9.559C3078.986,-4.266 3081.392,0.064 3086.204,3.432C3091.015,6.8 3100.157,9.928 3113.63,12.815L3136.004,17.867C3182.196,28.453 3215.035,43.008 3234.523,61.533C3254.01,80.058 3263.753,103.996 3263.753,133.347Z" style="fill:rgb(17,17,17);fill-rule:nonzero;"/>
                    </g>
                    <g transform="matrix(0.736284,0,0,0.964291,-135.833697,358.00511)">
                        <path d="M3349.641,117.468L3345.311,36.633L3512.034,9.206C3511.072,-0.417 3506.26,-10.04 3497.599,-19.664C3488.938,-29.287 3475.466,-34.099 3457.182,-34.099C3437.935,-34.099 3421.936,-27.844 3409.185,-15.333C3396.435,-2.823 3389.578,14.98 3388.616,38.076L3392.946,98.703C3397.758,120.836 3408.704,136.234 3425.786,144.895C3442.867,153.556 3461.993,157.886 3483.164,157.886C3503.373,157.886 3522.62,155.24 3540.904,149.947C3559.188,144.654 3573.864,138.88 3584.931,132.625C3592.629,137.437 3599.125,144.173 3604.418,152.834C3609.711,161.495 3612.357,170.637 3612.357,180.26C3612.357,196.139 3606.463,209.25 3594.674,219.595C3582.886,229.94 3566.647,237.519 3545.956,242.33C3525.266,247.142 3501.449,249.548 3474.503,249.548C3436.973,249.548 3403.171,242.451 3373.098,228.256C3343.025,214.062 3319.208,192.771 3301.645,164.382C3284.083,135.993 3275.301,100.387 3275.301,57.563C3275.301,25.806 3280.474,-1.62 3290.819,-24.716C3301.164,-47.812 3314.997,-66.577 3332.319,-81.012C3349.641,-95.447 3369.008,-106.153 3390.42,-113.13C3411.832,-120.107 3433.845,-123.595 3456.46,-123.595C3490.623,-123.595 3520.455,-116.979 3545.956,-103.747C3571.458,-90.515 3591.427,-72.472 3605.861,-49.616C3620.296,-26.761 3627.514,-0.417 3627.514,29.415C3627.514,45.775 3622.943,58.285 3613.801,66.946C3604.659,75.607 3591.908,81.14 3575.548,83.546L3349.641,117.468Z" style="fill:rgb(17,17,17);fill-rule:nonzero;"/>
                    </g>
                    <g transform="matrix(0.341292,-0,-0,0.450431,1958.308948,72.891523)">
                        <path d="M1759.861,142.988C1766.624,125.601 1783.366,114.15 1802.021,114.15C1820.677,114.15 1837.419,125.601 1844.182,142.988L1875.493,223.478C1876.886,227.057 1879.007,230.307 1881.722,233.023C1884.437,235.738 1887.687,237.859 1891.266,239.251L1971.757,270.562C1989.143,277.325 2000.595,294.068 2000.595,312.723C2000.595,331.378 1989.143,348.12 1971.757,354.884L1891.266,386.195C1887.687,387.587 1884.437,389.708 1881.722,392.423C1879.007,395.139 1876.886,398.389 1875.493,401.968L1844.182,482.458C1837.419,499.844 1820.677,511.296 1802.021,511.296C1783.366,511.296 1766.624,499.844 1759.861,482.458L1728.549,401.968C1727.157,398.389 1725.036,395.139 1722.321,392.423C1719.606,389.708 1716.356,387.587 1712.777,386.195L1632.286,354.884C1614.9,348.12 1603.448,331.378 1603.448,312.723C1603.448,294.068 1614.9,277.325 1632.286,270.562L1712.777,239.251C1716.356,237.859 1719.606,235.738 1722.321,233.023C1725.036,230.307 1727.157,227.057 1728.549,223.478L1759.861,142.988Z" style="fill:url(#_Radial3);"/>
                    </g>
                    <g transform="matrix(0.275561,0,0,0.363681,2117.371439,456.386623)">
                        <path d="M1759.861,142.988C1766.624,125.601 1783.366,114.15 1802.021,114.15C1820.677,114.15 1837.419,125.601 1844.182,142.988L1875.493,223.478C1876.886,227.057 1879.007,230.307 1881.722,233.023C1884.437,235.738 1887.687,237.859 1891.266,239.251L1971.757,270.562C1989.143,277.325 2000.595,294.068 2000.595,312.723C2000.595,331.378 1989.143,348.12 1971.757,354.884L1891.266,386.195C1887.687,387.587 1884.437,389.708 1881.722,392.423C1879.007,395.139 1876.886,398.389 1875.493,401.968L1844.182,482.458C1837.419,499.844 1820.677,511.296 1802.021,511.296C1783.366,511.296 1766.624,499.844 1759.861,482.458L1728.549,401.968C1727.157,398.389 1725.036,395.139 1722.321,392.423C1719.606,389.708 1716.356,387.587 1712.777,386.195L1632.286,354.884C1614.9,348.12 1603.448,331.378 1603.448,312.723C1603.448,294.068 1614.9,277.325 1632.286,270.562L1712.777,239.251C1716.356,237.859 1719.606,235.738 1722.321,233.023C1725.036,230.307 1727.157,227.057 1728.549,223.478L1759.861,142.988Z" style="fill:url(#_Linear4);"/>
                    </g>
                    <g transform="matrix(0.583419,0,0,0.92162,1678.456231,63.845855)">
                        <path d="M1759.861,142.988C1766.624,125.601 1783.366,114.15 1802.021,114.15C1820.677,114.15 1837.419,125.601 1844.182,142.988L1875.493,223.478C1876.886,227.057 1879.007,230.307 1881.722,233.023C1884.437,235.738 1887.687,237.859 1891.266,239.251L1971.757,270.562C1989.143,277.325 2000.595,294.068 2000.595,312.723C2000.595,331.378 1989.143,348.12 1971.757,354.884L1891.266,386.195C1887.687,387.587 1884.437,389.708 1881.722,392.423C1879.007,395.139 1876.886,398.389 1875.493,401.968L1844.182,482.458C1837.419,499.844 1820.677,511.296 1802.021,511.296C1783.366,511.296 1766.624,499.844 1759.861,482.458L1728.549,401.968C1727.157,398.389 1725.036,395.139 1722.321,392.423C1719.606,389.708 1716.356,387.587 1712.777,386.195L1632.286,354.884C1614.9,348.12 1603.448,331.378 1603.448,312.723C1603.448,294.068 1614.9,277.325 1632.286,270.562L1712.777,239.251C1716.356,237.859 1719.606,235.738 1722.321,233.023C1725.036,230.307 1727.157,227.057 1728.549,223.478L1759.861,142.988Z" style="fill:url(#_Radial5);"/>
                    </g>
                </g>
            </g>
        </g>
    </g>
    <defs>
        <linearGradient id="_Linear2" x1="0" y1="0" x2="1" y2="0" gradientUnits="userSpaceOnUse" gradientTransform="matrix(397.146254,0,0,397.146254,1603.448276,312.722949)"><stop offset="0" style="stop-color:rgb(255,0,0);stop-opacity:1"/><stop offset="1" style="stop-color:rgb(125,0,250);stop-opacity:1"/></linearGradient>
        <radialGradient id="_Radial3" cx="0" cy="0" r="1" gradientUnits="userSpaceOnUse" gradientTransform="matrix(397.146254,0,0,397.146254,1603.448276,312.722949)"><stop offset="0" style="stop-color:rgb(128,0,255);stop-opacity:1"/><stop offset="0.49" style="stop-color:rgb(160,0,190);stop-opacity:1"/><stop offset="1" style="stop-color:rgb(255,0,0);stop-opacity:1"/></radialGradient>
        <linearGradient id="_Linear4" x1="0" y1="0" x2="1" y2="0" gradientUnits="userSpaceOnUse" gradientTransform="matrix(397.146254,0,0,397.146254,1603.448276,312.722949)"><stop offset="0" style="stop-color:rgb(128,0,255);stop-opacity:1"/><stop offset="1" style="stop-color:rgb(255,0,0);stop-opacity:1"/></linearGradient>
        <radialGradient id="_Radial5" cx="0" cy="0" r="1" gradientUnits="userSpaceOnUse" gradientTransform="matrix(397.146254,0,0,397.146254,1603.448276,312.722949)"><stop offset="0" style="stop-color:rgb(128,0,255);stop-opacity:1"/><stop offset="1" style="stop-color:rgb(255,0,0);stop-opacity:1"/></radialGradient>
    </defs>
</svg>
